<?xml version="1.0" encoding="UTF-8"?>
<svg xmlns="http://www.w3.org/2000/svg" xmlns:xlink="http://www.w3.org/1999/xlink" width="756pt" height="504pt" viewBox="0 0 756 504" version="1.1">
<g id="surface209">
<rect x="0" y="0" width="756" height="504" style="fill:rgb(100%,100%,100%);fill-opacity:1;stroke:none;"/>
<path style="fill:none;stroke-width:10.669783;stroke-linecap:butt;stroke-linejoin:round;stroke:rgb(85.098039%,85.098039%,85.098039%);stroke-opacity:1;stroke-miterlimit:10;" d="M 233.617188 363.929688 L 237.796875 359.886719 L 241.972656 355.84375 L 246.152344 351.800781 L 254.503906 343.714844 L 258.683594 339.671875 L 262.859375 335.628906 L 267.039062 331.585938 L 271.214844 327.542969 L 275.394531 323.503906 L 283.746094 315.417969 L 287.925781 311.375 L 292.101562 307.332031 L 296.28125 303.289062 L 304.632812 295.203125 L 308.8125 291.160156 L 312.988281 287.117188 L 317.167969 283.074219 L 321.34375 279.035156 L 325.519531 274.992188 L 329.699219 270.949219 L 333.875 266.90625 L 338.054688 262.863281 L 342.230469 258.820312 L 346.410156 254.777344 L 354.761719 246.691406 L 358.941406 242.648438 L 363.117188 238.609375 L 367.296875 234.566406 L 375.648438 226.480469 L 379.828125 222.4375 L 384.003906 218.394531 L 388.183594 214.351562 L 392.359375 210.308594 L 396.539062 206.265625 L 404.890625 198.179688 L 409.070312 194.140625 L 413.246094 190.097656 L 417.425781 186.054688 L 425.777344 177.96875 L 429.957031 173.925781 L 434.132812 169.882812 L 438.3125 165.839844 L 446.664062 157.753906 L 450.84375 153.710938 L 455.019531 149.671875 L 459.199219 145.628906 L 463.375 141.585938 L 467.554688 137.542969 L 475.90625 129.457031 L 480.085938 125.414062 L 484.261719 121.371094 L 488.441406 117.328125 L 492.617188 113.285156 L 496.792969 109.246094 L 500.972656 105.203125 L 505.148438 101.160156 L 509.328125 97.117188 L 513.503906 93.074219 L 517.683594 89.03125 L 526.035156 80.945312 L 530.214844 76.902344 L 534.390625 72.859375 L 538.570312 68.816406 L 542.746094 64.777344 L 546.921875 60.734375 L 551.101562 56.691406 L 555.277344 52.648438 L 559.457031 48.605469 L 563.632812 44.5625 "/>
<path style="fill-rule:nonzero;fill:rgb(56.862745%,16.862745%,50.588235%);fill-opacity:0.501961;stroke-width:0.708661;stroke-linecap:round;stroke-linejoin:round;stroke:rgb(56.862745%,16.862745%,50.588235%);stroke-opacity:0.501961;stroke-miterlimit:10;" d="M 379.066406 227.191406 C 379.066406 239.171875 369.355469 248.882812 357.375 248.882812 C 345.394531 248.882812 335.679688 239.171875 335.679688 227.191406 C 335.679688 215.207031 345.394531 205.496094 357.375 205.496094 C 369.355469 205.496094 379.066406 215.207031 379.066406 227.191406 "/>
<path style="fill-rule:nonzero;fill:rgb(8.235294%,5.490196%,21.568627%);fill-opacity:0.501961;stroke-width:0.708661;stroke-linecap:round;stroke-linejoin:round;stroke:rgb(8.235294%,5.490196%,21.568627%);stroke-opacity:0.501961;stroke-miterlimit:10;" d="M 255.3125 481.089844 C 255.3125 493.070312 245.601562 502.785156 233.617188 502.785156 C 221.636719 502.785156 211.925781 493.070312 211.925781 481.089844 C 211.925781 469.109375 221.636719 459.398438 233.617188 459.398438 C 245.601562 459.398438 255.3125 469.109375 255.3125 481.089844 "/>
<path style="fill-rule:nonzero;fill:rgb(97.647059%,47.45098%,36.470588%);fill-opacity:0.501961;stroke-width:0.708661;stroke-linecap:round;stroke-linejoin:round;stroke:rgb(97.647059%,47.45098%,36.470588%);stroke-opacity:0.501961;stroke-miterlimit:10;" d="M 502.824219 22.910156 C 502.824219 34.890625 493.109375 44.601562 481.128906 44.601562 C 469.148438 44.601562 459.4375 34.890625 459.4375 22.910156 C 459.4375 10.929688 469.148438 1.214844 481.128906 1.214844 C 493.109375 1.214844 502.824219 10.929688 502.824219 22.910156 "/>
<path style="fill-rule:nonzero;fill:rgb(73.72549%,22.352941%,47.058824%);fill-opacity:0.501961;stroke-width:0.708661;stroke-linecap:round;stroke-linejoin:round;stroke:rgb(73.72549%,22.352941%,47.058824%);stroke-opacity:0.501961;stroke-miterlimit:10;" d="M 420.320312 173.8125 C 420.320312 185.796875 410.605469 195.507812 398.625 195.507812 C 386.644531 195.507812 376.933594 185.796875 376.933594 173.8125 C 376.933594 161.832031 386.644531 152.121094 398.625 152.121094 C 410.605469 152.121094 420.320312 161.832031 420.320312 173.8125 "/>
<path style="fill-rule:nonzero;fill:rgb(97.647059%,47.45098%,36.470588%);fill-opacity:0.501961;stroke-width:0.708661;stroke-linecap:round;stroke-linejoin:round;stroke:rgb(97.647059%,47.45098%,36.470588%);stroke-opacity:0.501961;stroke-miterlimit:10;" d="M 502.824219 22.910156 C 502.824219 34.890625 493.109375 44.601562 481.128906 44.601562 C 469.148438 44.601562 459.4375 34.890625 459.4375 22.910156 C 459.4375 10.929688 469.148438 1.214844 481.128906 1.214844 C 493.109375 1.214844 502.824219 10.929688 502.824219 22.910156 "/>
<path style="fill-rule:nonzero;fill:rgb(99.215686%,86.27451%,61.960784%);fill-opacity:0.501961;stroke-width:0.708661;stroke-linecap:round;stroke-linejoin:round;stroke:rgb(99.215686%,86.27451%,61.960784%);stroke-opacity:0.501961;stroke-miterlimit:10;" d="M 585.328125 177.144531 C 585.328125 189.125 575.613281 198.835938 563.632812 198.835938 C 551.652344 198.835938 541.9375 189.125 541.9375 177.144531 C 541.9375 165.160156 551.652344 155.449219 563.632812 155.449219 C 575.613281 155.449219 585.328125 165.160156 585.328125 177.144531 "/>
<path style="fill-rule:nonzero;fill:rgb(99.215686%,86.27451%,61.960784%);fill-opacity:0.501961;stroke-width:0.708661;stroke-linecap:round;stroke-linejoin:round;stroke:rgb(99.215686%,86.27451%,61.960784%);stroke-opacity:0.501961;stroke-miterlimit:10;" d="M 585.328125 177.144531 C 585.328125 189.125 575.613281 198.835938 563.632812 198.835938 C 551.652344 198.835938 541.9375 189.125 541.9375 177.144531 C 541.9375 165.160156 551.652344 155.449219 563.632812 155.449219 C 575.613281 155.449219 585.328125 165.160156 585.328125 177.144531 "/>
<path style="fill-rule:nonzero;fill:rgb(97.647059%,47.45098%,36.470588%);fill-opacity:0.501961;stroke-width:0.708661;stroke-linecap:round;stroke-linejoin:round;stroke:rgb(97.647059%,47.45098%,36.470588%);stroke-opacity:0.501961;stroke-miterlimit:10;" d="M 502.824219 22.910156 C 502.824219 34.890625 493.109375 44.601562 481.128906 44.601562 C 469.148438 44.601562 459.4375 34.890625 459.4375 22.910156 C 459.4375 10.929688 469.148438 1.214844 481.128906 1.214844 C 493.109375 1.214844 502.824219 10.929688 502.824219 22.910156 "/>
<path style="fill-rule:nonzero;fill:rgb(73.72549%,22.352941%,47.058824%);fill-opacity:0.501961;stroke-width:0.708661;stroke-linecap:round;stroke-linejoin:round;stroke:rgb(73.72549%,22.352941%,47.058824%);stroke-opacity:0.501961;stroke-miterlimit:10;" d="M 420.320312 173.8125 C 420.320312 185.796875 410.605469 195.507812 398.625 195.507812 C 386.644531 195.507812 376.933594 185.796875 376.933594 173.8125 C 376.933594 161.832031 386.644531 152.121094 398.625 152.121094 C 410.605469 152.121094 420.320312 161.832031 420.320312 173.8125 "/>
</g>
</svg>
