<?xml version="1.0" encoding="UTF-8"?>
<svg xmlns="http://www.w3.org/2000/svg" xmlns:xlink="http://www.w3.org/1999/xlink" width="756pt" height="504pt" viewBox="0 0 756 504" version="1.1">
<g id="surface189">
<rect x="0" y="0" width="756" height="504" style="fill:rgb(100%,100%,100%);fill-opacity:1;stroke:none;"/>
<path style="fill:none;stroke-width:10.669783;stroke-linecap:butt;stroke-linejoin:round;stroke:rgb(85.098039%,85.098039%,85.098039%);stroke-opacity:1;stroke-miterlimit:10;" d="M 302.78125 22.910156 L 337.058594 55.816406 L 340.867188 59.476562 L 378.953125 96.039062 L 382.761719 99.699219 L 405.613281 121.636719 L 409.417969 125.292969 L 424.652344 139.917969 L 428.460938 143.578125 L 470.355469 183.796875 L 474.164062 187.457031 L 512.25 224.019531 L 516.058594 227.679688 L 523.675781 234.992188 L 527.480469 238.648438 L 557.949219 267.898438 L 561.757812 271.558594 L 603.652344 311.777344 "/>
<path style="fill-rule:nonzero;fill:rgb(40.392157%,10.980392%,50.196078%);fill-opacity:0.501961;stroke-width:0.708661;stroke-linecap:round;stroke-linejoin:round;stroke:rgb(40.392157%,10.980392%,50.196078%);stroke-opacity:0.501961;stroke-miterlimit:10;" d="M 324.476562 23.828125 C 324.476562 35.808594 314.765625 45.523438 302.78125 45.523438 C 290.800781 45.523438 281.089844 35.808594 281.089844 23.828125 C 281.089844 11.847656 290.800781 2.132812 302.78125 2.132812 C 314.765625 2.132812 324.476562 11.847656 324.476562 23.828125 "/>
<path style="fill-rule:nonzero;fill:rgb(99.215686%,86.27451%,61.960784%);fill-opacity:0.501961;stroke-width:0.708661;stroke-linecap:round;stroke-linejoin:round;stroke:rgb(99.215686%,86.27451%,61.960784%);stroke-opacity:0.501961;stroke-miterlimit:10;" d="M 625.34375 285.976562 C 625.34375 297.957031 615.632812 307.667969 603.652344 307.667969 C 591.671875 307.667969 581.957031 297.957031 581.957031 285.976562 C 581.957031 273.992188 591.671875 264.28125 603.652344 264.28125 C 615.632812 264.28125 625.34375 273.992188 625.34375 285.976562 "/>
<path style="fill-rule:nonzero;fill:rgb(99.215686%,86.27451%,61.960784%);fill-opacity:0.501961;stroke-width:0.708661;stroke-linecap:round;stroke-linejoin:round;stroke:rgb(99.215686%,86.27451%,61.960784%);stroke-opacity:0.501961;stroke-miterlimit:10;" d="M 625.34375 285.976562 C 625.34375 297.957031 615.632812 307.667969 603.652344 307.667969 C 591.671875 307.667969 581.957031 297.957031 581.957031 285.976562 C 581.957031 273.992188 591.671875 264.28125 603.652344 264.28125 C 615.632812 264.28125 625.34375 273.992188 625.34375 285.976562 "/>
<path style="fill-rule:nonzero;fill:rgb(99.215686%,86.27451%,61.960784%);fill-opacity:0.501961;stroke-width:0.708661;stroke-linecap:round;stroke-linejoin:round;stroke:rgb(99.215686%,86.27451%,61.960784%);stroke-opacity:0.501961;stroke-miterlimit:10;" d="M 625.34375 285.976562 C 625.34375 297.957031 615.632812 307.667969 603.652344 307.667969 C 591.671875 307.667969 581.957031 297.957031 581.957031 285.976562 C 581.957031 273.992188 591.671875 264.28125 603.652344 264.28125 C 615.632812 264.28125 625.34375 273.992188 625.34375 285.976562 "/>
<path style="fill-rule:nonzero;fill:rgb(40.392157%,10.980392%,50.196078%);fill-opacity:0.501961;stroke-width:0.708661;stroke-linecap:round;stroke-linejoin:round;stroke:rgb(40.392157%,10.980392%,50.196078%);stroke-opacity:0.501961;stroke-miterlimit:10;" d="M 324.476562 23.828125 C 324.476562 35.808594 314.765625 45.523438 302.78125 45.523438 C 290.800781 45.523438 281.089844 35.808594 281.089844 23.828125 C 281.089844 11.847656 290.800781 2.132812 302.78125 2.132812 C 314.765625 2.132812 324.476562 11.847656 324.476562 23.828125 "/>
<path style="fill-rule:nonzero;fill:rgb(99.607843%,67.058824%,45.882353%);fill-opacity:0.501961;stroke-width:0.708661;stroke-linecap:round;stroke-linejoin:round;stroke:rgb(99.607843%,67.058824%,45.882353%);stroke-opacity:0.501961;stroke-miterlimit:10;" d="M 575.199219 481.089844 C 575.199219 493.070312 565.488281 502.785156 553.507812 502.785156 C 541.527344 502.785156 531.8125 493.070312 531.8125 481.089844 C 531.8125 469.109375 541.527344 459.398438 553.507812 459.398438 C 565.488281 459.398438 575.199219 469.109375 575.199219 481.089844 "/>
<path style="fill-rule:nonzero;fill:rgb(97.647059%,47.45098%,36.470588%);fill-opacity:0.501961;stroke-width:0.708661;stroke-linecap:round;stroke-linejoin:round;stroke:rgb(97.647059%,47.45098%,36.470588%);stroke-opacity:0.501961;stroke-miterlimit:10;" d="M 525.054688 98.492188 C 525.054688 110.472656 515.34375 120.183594 503.363281 120.183594 C 491.378906 120.183594 481.667969 110.472656 481.667969 98.492188 C 481.667969 86.511719 491.378906 76.796875 503.363281 76.796875 C 515.34375 76.796875 525.054688 86.511719 525.054688 98.492188 "/>
<path style="fill-rule:nonzero;fill:rgb(99.215686%,86.27451%,61.960784%);fill-opacity:0.501961;stroke-width:0.708661;stroke-linecap:round;stroke-linejoin:round;stroke:rgb(99.215686%,86.27451%,61.960784%);stroke-opacity:0.501961;stroke-miterlimit:10;" d="M 625.34375 285.976562 C 625.34375 297.957031 615.632812 307.667969 603.652344 307.667969 C 591.671875 307.667969 581.957031 297.957031 581.957031 285.976562 C 581.957031 273.992188 591.671875 264.28125 603.652344 264.28125 C 615.632812 264.28125 625.34375 273.992188 625.34375 285.976562 "/>
<path style="fill-rule:nonzero;fill:rgb(40.392157%,10.980392%,50.196078%);fill-opacity:0.501961;stroke-width:0.708661;stroke-linecap:round;stroke-linejoin:round;stroke:rgb(40.392157%,10.980392%,50.196078%);stroke-opacity:0.501961;stroke-miterlimit:10;" d="M 324.476562 23.828125 C 324.476562 35.808594 314.765625 45.523438 302.78125 45.523438 C 290.800781 45.523438 281.089844 35.808594 281.089844 23.828125 C 281.089844 11.847656 290.800781 2.132812 302.78125 2.132812 C 314.765625 2.132812 324.476562 11.847656 324.476562 23.828125 "/>
</g>
</svg>
