<?xml version="1.0" encoding="UTF-8"?>
<svg xmlns="http://www.w3.org/2000/svg" xmlns:xlink="http://www.w3.org/1999/xlink" width="756pt" height="504pt" viewBox="0 0 756 504" version="1.1">
<g id="surface5044">
<rect x="0" y="0" width="756" height="504" style="fill:rgb(100%,100%,100%);fill-opacity:1;stroke:none;"/>
<path style="fill:none;stroke-width:10.669783;stroke-linecap:butt;stroke-linejoin:round;stroke:rgb(85.098039%,85.098039%,85.098039%);stroke-opacity:1;stroke-miterlimit:10;" d="M 280.085938 408.585938 L 282.917969 405.8125 L 288.582031 400.273438 L 291.417969 397.503906 L 294.25 394.730469 L 299.914062 389.191406 L 302.75 386.421875 L 305.582031 383.652344 L 308.414062 380.878906 L 311.246094 378.109375 L 314.082031 375.339844 L 316.914062 372.570312 L 319.746094 369.796875 L 322.578125 367.027344 L 325.414062 364.257812 L 331.078125 358.71875 L 333.910156 355.945312 L 336.746094 353.175781 L 342.410156 347.636719 L 345.242188 344.863281 L 348.078125 342.09375 L 353.742188 336.554688 L 356.574219 333.78125 L 359.410156 331.011719 L 367.90625 322.703125 L 370.742188 319.929688 L 379.238281 311.621094 L 382.074219 308.847656 L 390.570312 300.539062 L 393.40625 297.765625 L 401.902344 289.457031 L 404.738281 286.6875 L 407.570312 283.914062 L 413.234375 278.375 L 416.070312 275.605469 L 418.902344 272.832031 L 424.566406 267.292969 L 427.402344 264.523438 L 430.234375 261.75 L 435.898438 256.210938 L 438.734375 253.441406 L 441.566406 250.671875 L 444.398438 247.898438 L 447.230469 245.128906 L 450.066406 242.359375 L 452.898438 239.589844 L 455.730469 236.816406 L 458.5625 234.046875 L 461.398438 231.277344 L 464.230469 228.507812 L 467.0625 225.734375 L 469.894531 222.964844 L 472.730469 220.195312 L 478.394531 214.65625 L 481.226562 211.882812 L 484.0625 209.113281 L 489.726562 203.574219 L 492.558594 200.800781 L 495.394531 198.03125 L 501.058594 192.492188 L 503.890625 189.71875 "/>
<path style="fill-rule:nonzero;fill:rgb(97.647059%,47.45098%,36.470588%);fill-opacity:0.501961;stroke-width:0.708661;stroke-linecap:round;stroke-linejoin:round;stroke:rgb(97.647059%,47.45098%,36.470588%);stroke-opacity:0.501961;stroke-miterlimit:10;" d="M 469.632812 170.363281 C 469.632812 182.34375 459.921875 192.058594 447.941406 192.058594 C 435.957031 192.058594 426.246094 182.34375 426.246094 170.363281 C 426.246094 158.382812 435.957031 148.667969 447.941406 148.667969 C 459.921875 148.667969 469.632812 158.382812 469.632812 170.363281 "/>
<path style="fill-rule:nonzero;fill:rgb(73.72549%,22.352941%,47.058824%);fill-opacity:0.501961;stroke-width:0.708661;stroke-linecap:round;stroke-linejoin:round;stroke:rgb(73.72549%,22.352941%,47.058824%);stroke-opacity:0.501961;stroke-miterlimit:10;" d="M 413.683594 272.703125 C 413.683594 284.683594 403.96875 294.398438 391.988281 294.398438 C 380.007812 294.398438 370.292969 284.683594 370.292969 272.703125 C 370.292969 260.722656 380.007812 251.007812 391.988281 251.007812 C 403.96875 251.007812 413.683594 260.722656 413.683594 272.703125 "/>
<path style="fill-rule:nonzero;fill:rgb(89.411765%,30.980392%,39.215686%);fill-opacity:0.501961;stroke-width:0.708661;stroke-linecap:round;stroke-linejoin:round;stroke:rgb(89.411765%,30.980392%,39.215686%);stroke-opacity:0.501961;stroke-miterlimit:10;" d="M 441.65625 22.910156 C 441.65625 34.890625 431.945312 44.601562 419.964844 44.601562 C 407.984375 44.601562 398.269531 34.890625 398.269531 22.910156 C 398.269531 10.929688 407.984375 1.214844 419.964844 1.214844 C 431.945312 1.214844 441.65625 10.929688 441.65625 22.910156 "/>
<path style="fill-rule:nonzero;fill:rgb(99.215686%,86.27451%,61.960784%);fill-opacity:0.501961;stroke-width:0.708661;stroke-linecap:round;stroke-linejoin:round;stroke:rgb(99.215686%,86.27451%,61.960784%);stroke-opacity:0.501961;stroke-miterlimit:10;" d="M 525.585938 274.960938 C 525.585938 286.941406 515.871094 296.65625 503.890625 296.65625 C 491.910156 296.65625 482.199219 286.941406 482.199219 274.960938 C 482.199219 262.980469 491.910156 253.265625 503.890625 253.265625 C 515.871094 253.265625 525.585938 262.980469 525.585938 274.960938 "/>
<path style="fill-rule:nonzero;fill:rgb(23.921569%,5.882353%,44.313725%);fill-opacity:0.501961;stroke-width:0.708661;stroke-linecap:round;stroke-linejoin:round;stroke:rgb(23.921569%,5.882353%,44.313725%);stroke-opacity:0.501961;stroke-miterlimit:10;" d="M 329.753906 406.914062 C 329.753906 418.894531 320.042969 428.605469 308.058594 428.605469 C 296.078125 428.605469 286.367188 418.894531 286.367188 406.914062 C 286.367188 394.933594 296.078125 385.21875 308.058594 385.21875 C 320.042969 385.21875 329.753906 394.933594 329.753906 406.914062 "/>
<path style="fill-rule:nonzero;fill:rgb(73.72549%,22.352941%,47.058824%);fill-opacity:0.501961;stroke-width:0.708661;stroke-linecap:round;stroke-linejoin:round;stroke:rgb(73.72549%,22.352941%,47.058824%);stroke-opacity:0.501961;stroke-miterlimit:10;" d="M 413.683594 272.703125 C 413.683594 284.683594 403.96875 294.398438 391.988281 294.398438 C 380.007812 294.398438 370.292969 284.683594 370.292969 272.703125 C 370.292969 260.722656 380.007812 251.007812 391.988281 251.007812 C 403.96875 251.007812 413.683594 260.722656 413.683594 272.703125 "/>
<path style="fill-rule:nonzero;fill:rgb(99.607843%,67.058824%,45.882353%);fill-opacity:0.501961;stroke-width:0.708661;stroke-linecap:round;stroke-linejoin:round;stroke:rgb(99.607843%,67.058824%,45.882353%);stroke-opacity:0.501961;stroke-miterlimit:10;" d="M 497.609375 383.816406 C 497.609375 395.796875 487.898438 405.511719 475.914062 405.511719 C 463.933594 405.511719 454.222656 395.796875 454.222656 383.816406 C 454.222656 371.835938 463.933594 362.121094 475.914062 362.121094 C 487.898438 362.121094 497.609375 371.835938 497.609375 383.816406 "/>
<path style="fill-rule:nonzero;fill:rgb(23.921569%,5.882353%,44.313725%);fill-opacity:0.501961;stroke-width:0.708661;stroke-linecap:round;stroke-linejoin:round;stroke:rgb(23.921569%,5.882353%,44.313725%);stroke-opacity:0.501961;stroke-miterlimit:10;" d="M 329.753906 406.914062 C 329.753906 418.894531 320.042969 428.605469 308.058594 428.605469 C 296.078125 428.605469 286.367188 418.894531 286.367188 406.914062 C 286.367188 394.933594 296.078125 385.21875 308.058594 385.21875 C 320.042969 385.21875 329.753906 394.933594 329.753906 406.914062 "/>
<path style="fill-rule:nonzero;fill:rgb(8.235294%,5.490196%,21.568627%);fill-opacity:0.501961;stroke-width:0.708661;stroke-linecap:round;stroke-linejoin:round;stroke:rgb(8.235294%,5.490196%,21.568627%);stroke-opacity:0.501961;stroke-miterlimit:10;" d="M 301.777344 481.089844 C 301.777344 493.070312 292.066406 502.785156 280.085938 502.785156 C 268.101562 502.785156 258.390625 493.070312 258.390625 481.089844 C 258.390625 469.109375 268.101562 459.398438 280.085938 459.398438 C 292.066406 459.398438 301.777344 469.109375 301.777344 481.089844 "/>
</g>
</svg>
